<?xml version="1.0" standalone="no"?>
<!DOCTYPE svg PUBLIC "-//W3C//DTD SVG 20010904//EN"
 "http://www.w3.org/TR/2001/REC-SVG-20010904/DTD/svg10.dtd">
<svg version="1.0" xmlns="http://www.w3.org/2000/svg"
 width="479.000000pt" height="479.000000pt" viewBox="0 0 479.000000 479.000000"
 preserveAspectRatio="xMidYMid meet">

<g transform="translate(0.000000,479.000000) scale(0.100000,-0.100000)"
fill="#000000" stroke="none">
<path d="M2220 4770 c-847 -68 -1591 -570 -1960 -1325 -100 -203 -160 -386
-207 -625 -25 -126 -27 -154 -27 -415 -1 -252 1 -293 22 -410 136 -753 599
-1379 1271 -1719 227 -114 429 -182 682 -226 159 -28 478 -38 641 -20 441 48
835 202 1187 464 132 99 374 339 469 467 799 1073 580 2564 -493 3355 -446
328 -1037 498 -1585 454z m540 -124 c236 -41 433 -105 645 -210 914 -453 1415
-1445 1235 -2446 -90 -498 -360 -975 -735 -1299 -419 -362 -889 -549 -1430
-568 -806 -28 -1552 364 -1999 1049 -157 240 -270 533 -327 847 -26 140 -36
466 -20 611 48 414 190 783 425 1104 388 529 952 853 1616 930 89 10 499 -2
590 -18z"/>
<path d="M2068 4503 c0 -5 -1 -15 -2 -23 -1 -8 -23 -30 -50 -48 -48 -32 -71
-37 -71 -14 0 26 -15 20 -49 -21 -25 -30 -36 -54 -36 -76 0 -39 26 -53 46 -25
30 41 56 63 121 98 37 19 81 44 96 53 27 17 29 17 38 1 13 -23 26 -23 39 1 17
32 -11 51 -57 40 -29 -6 -41 -5 -49 6 -12 16 -23 19 -26 8z"/>
<path d="M2757 4470 c3 -11 12 -20 19 -20 17 0 18 12 2 28 -18 18 -27 15 -21
-8z"/>
<path d="M2915 4450 c21 -23 55 -27 55 -6 0 15 -21 26 -52 26 -20 0 -21 -1 -3
-20z"/>
<path d="M2678 4357 c-14 -28 -44 -91 -66 -138 -37 -81 -42 -87 -76 -93 -20
-4 -42 -4 -49 0 -6 4 -3 -2 7 -14 11 -13 31 -22 48 -22 21 0 28 -5 28 -20 0
-22 1 -23 24 -14 9 3 16 14 16 24 0 16 29 50 44 50 4 0 5 -12 4 -27 -2 -18 2
-28 12 -30 11 -3 20 11 29 44 9 28 31 66 55 92 30 32 34 40 15 28 -33 -22 -38
-16 -28 36 12 62 11 65 -13 69 -19 2 -22 8 -20 36 2 17 2 32 0 32 -2 0 -15
-24 -30 -53z"/>
<path d="M2075 4340 c-16 -11 -38 -20 -47 -20 -25 0 -25 -65 -1 -74 24 -10 50
19 34 37 -9 12 -7 19 15 36 25 19 29 20 44 6 16 -14 18 -14 24 0 3 9 6 21 6
26 0 16 -44 10 -75 -11z"/>
<path d="M2847 4345 c12 -21 0 -69 -23 -96 -8 -8 -14 -20 -14 -26 0 -5 -9 -18
-20 -28 -23 -21 -28 -91 -7 -98 6 -2 24 18 40 45 27 48 54 66 42 29 -8 -25 18
-87 42 -99 22 -11 41 -6 71 21 30 28 28 38 -8 31 -52 -11 -59 -2 -47 56 9 49
9 54 -13 70 -21 16 -22 18 -6 48 20 39 20 39 -8 46 -13 3 -32 9 -41 13 -15 5
-16 3 -8 -12z"/>
<path d="M1396 4269 l-29 -23 23 -8 c29 -11 51 9 41 35 -6 17 -8 17 -35 -4z"/>
<path d="M2070 4215 c0 -8 5 -24 12 -34 9 -15 9 -26 1 -44 -12 -26 -8 -62 10
-85 8 -10 16 -5 37 20 30 36 30 48 -1 48 -20 0 -26 24 -9 35 17 10 11 36 -12
56 -28 23 -38 24 -38 4z"/>
<path d="M1209 4162 c12 -23 40 -47 46 -40 3 3 -4 17 -16 31 -24 31 -45 37
-30 9z"/>
<path d="M3513 4165 c-3 -9 3 -25 13 -36 14 -16 20 -17 31 -7 18 18 5 58 -18
58 -11 0 -22 -7 -26 -15z"/>
<path d="M1430 4150 c0 -5 7 -13 15 -17 8 -5 24 -44 36 -88 22 -86 35 -115 49
-115 6 0 1 24 -10 53 -11 28 -20 60 -20 70 0 32 33 14 54 -30 16 -34 26 -42
55 -47 19 -3 37 -3 42 -1 9 6 33 105 26 111 -3 3 -18 -13 -32 -35 -15 -22 -30
-39 -34 -37 -3 3 -14 22 -25 43 -10 21 -22 45 -26 53 -13 26 -39 23 -50 -4
-13 -34 -32 -33 -30 2 1 15 2 33 1 40 -1 14 -51 17 -51 2z"/>
<path d="M1264 4023 c18 -43 45 -102 60 -132 l28 -54 -31 -68 c-22 -50 -26
-69 -16 -69 15 0 51 42 60 71 8 25 30 24 49 -3 9 -12 18 -20 20 -17 3 3 -6 22
-21 42 -30 42 -24 61 10 29 l22 -21 12 25 c7 15 8 26 1 30 -5 3 -7 15 -4 26 2
12 -2 41 -10 65 -8 24 -12 53 -9 63 5 15 3 18 -9 14 -9 -3 -16 -2 -16 3 0 21
-50 63 -75 63 -31 0 -40 -20 -27 -57 l11 -28 -2 34 c-1 19 3 36 10 38 16 6 47
-54 32 -63 -7 -4 -8 -23 -4 -51 7 -50 -9 -53 -18 -3 -4 18 -11 28 -19 25 -8
-3 -23 18 -41 55 -41 88 -52 73 -13 -17z"/>
<path d="M3441 4083 c-19 -16 -35 -19 -68 -15 -42 5 -44 4 -39 -19 5 -20 -1
-29 -41 -54 -27 -16 -55 -33 -63 -36 -9 -4 -22 -15 -30 -25 -18 -21 -15 -20
98 22 86 31 99 26 83 -32 -13 -47 -15 -154 -2 -154 11 0 21 36 21 81 0 21 7
42 16 50 11 9 14 23 10 47 -8 50 8 72 49 72 42 0 52 14 20 28 -13 6 -25 21
-27 33 l-3 21 -24 -19z"/>
<path d="M2275 4013 c-721 -58 -1323 -586 -1465 -1285 -180 -884 373 -1725
1263 -1920 88 -19 132 -23 322 -23 246 0 318 10 502 71 600 196 1026 708 1108
1332 42 319 -16 657 -164 950 -146 290 -439 575 -734 716 -262 125 -556 182
-832 159z m430 -73 c551 -116 997 -505 1179 -1029 67 -191 80 -279 80 -516 0
-188 -3 -222 -26 -325 -46 -207 -118 -374 -236 -551 -393 -586 -1140 -840
-1807 -614 -530 180 -930 633 -1039 1176 -73 361 -25 705 141 1031 134 263
349 491 606 642 165 97 383 174 573 201 139 20 397 13 529 -15z"/>
<path d="M2460 3348 c30 -17 94 -55 142 -85 48 -30 93 -51 99 -47 12 7 -74 60
-203 125 -93 47 -115 51 -38 7z"/>
<path d="M3024 3275 c-149 -34 -267 -103 -419 -245 -225 -209 -496 -390 -697
-465 l-47 -17 61 -56 c125 -116 420 -342 446 -342 10 0 1062 1084 1062 1094 0
3 -24 13 -52 22 -73 22 -274 28 -354 9z"/>
<path d="M1359 3252 c-28 -23 -30 -73 -4 -102 27 -30 78 -27 105 7 52 66 -35
148 -101 95z"/>
<path d="M3337 3068 c-13 -18 -203 -249 -421 -513 -218 -263 -396 -482 -396
-486 0 -12 251 -112 259 -103 5 5 20 41 34 79 102 282 281 634 473 928 83 126
100 157 51 95z"/>
<path d="M1450 3015 c0 -5 22 -55 49 -110 155 -322 469 -638 895 -902 256
-158 597 -257 799 -232 135 17 217 74 271 189 30 63 31 69 30 200 -1 120 -4
144 -28 215 -37 108 -97 224 -164 318 -67 93 -79 105 -88 84 -3 -10 15 -51 46
-101 121 -201 174 -354 175 -506 0 -77 -4 -104 -21 -140 -86 -181 -309 -217
-636 -104 -142 49 -390 170 -495 243 -332 227 -679 573 -802 800 -17 31 -31
52 -31 46z"/>
<path d="M1411 2498 c12 -24 121 -229 242 -457 l221 -414 197 204 c109 112
198 207 199 211 0 4 -27 25 -60 48 -108 73 -263 202 -373 310 l-107 105 -123
1 c-89 0 -134 5 -166 17 -24 9 -45 17 -47 17 -3 0 5 -19 17 -42z"/>
<path d="M2260 1761 c-85 -104 -156 -193 -157 -198 -3 -7 213 -74 518 -160 12
-3 18 10 28 64 7 37 26 122 43 188 17 66 32 129 35 140 4 17 -6 24 -62 44 -36
12 -106 43 -156 67 -50 24 -91 44 -92 44 -1 0 -72 -85 -157 -189z"/>
<path d="M1997 1333 c-2 -4 -5 -47 -6 -95 -2 -67 1 -88 11 -88 10 0 13 22 12
90 -1 86 -6 112 -17 93z"/>
<path d="M2154 1315 c-28 -43 10 -95 58 -79 22 7 22 7 3 -22 -10 -16 -24 -33
-32 -37 -7 -5 -11 -13 -7 -18 9 -16 62 39 74 77 7 19 9 43 5 54 -17 53 -73 67
-101 25z m75 -14 c13 -24 -8 -55 -34 -50 -28 6 -42 34 -26 53 18 22 48 20 60
-3z"/>
<path d="M2360 1295 c0 -33 4 -45 15 -45 8 0 24 -9 35 -20 17 -17 18 -24 9
-41 -8 -17 -18 -20 -45 -17 -21 2 -33 0 -31 -6 2 -6 21 -11 43 -11 33 0 41 4
52 28 12 24 11 31 -2 52 -9 13 -26 25 -38 27 -17 2 -23 10 -23 28 0 21 5 26
33 28 46 5 40 22 -8 22 l-40 0 0 -45z"/>
<path d="M2553 1333 c-24 -9 -13 -21 20 -19 29 1 32 -2 35 -29 2 -28 -8 -50
-54 -112 l-16 -23 56 0 c31 0 56 5 56 10 0 6 -16 10 -35 10 -19 0 -35 3 -35 6
0 3 11 20 25 38 53 69 18 148 -52 119z"/>
<path d="M740 3812 c0 -12 39 -52 50 -52 17 0 11 21 -12 41 -25 20 -38 24 -38
11z"/>
<path d="M775 3730 c3 -5 10 -10 16 -10 5 0 9 5 9 10 0 6 -7 10 -16 10 -8 0
-12 -4 -9 -10z"/>
<path d="M750 3700 c0 -16 51 -49 66 -43 8 3 13 10 12 15 -5 13 -78 38 -78 28z"/>
<path d="M858 3651 c-13 -23 -31 -44 -40 -47 -30 -9 -20 -25 13 -22 26 2 33 9
43 38 15 46 31 36 32 -20 1 -54 31 -130 50 -130 8 0 14 11 14 27 0 33 12 22
26 -25 l12 -37 1 38 c1 21 -6 54 -14 74 -11 27 -12 39 -4 49 24 29 52 13 74
-39 15 -37 15 -37 -10 -47 -33 -12 -22 -37 24 -56 28 -12 32 -11 41 6 28 53
-4 136 -68 173 l-32 19 -36 -31 c-19 -17 -39 -29 -45 -26 -5 4 -8 25 -7 48 3
39 1 42 -24 45 -22 3 -31 -4 -50 -37z"/>
<path d="M3781 3671 c-8 -5 -12 -18 -8 -31 5 -18 2 -21 -21 -19 -69 5 -108
-15 -97 -50 7 -23 54 -29 99 -11 17 6 27 6 31 -1 4 -5 25 -9 46 -7 35 2 45 -3
74 -35 19 -20 38 -37 42 -37 15 0 33 23 33 40 0 25 33 50 66 50 56 0 72 42 28
73 -23 17 -31 18 -87 7 -87 -18 -114 -16 -140 9 -25 22 -44 26 -66 12z"/>
<path d="M679 3568 c-16 -14 -49 -63 -49 -73 0 -4 10 -5 23 -3 14 2 22 10 22
22 0 38 27 27 78 -30 98 -112 146 -154 172 -154 28 0 32 12 10 30 -8 6 -26 32
-40 56 -27 47 -51 59 -40 22 4 -14 -23 9 -72 60 -43 45 -81 82 -84 82 -3 0
-12 -6 -20 -12z"/>
<path d="M3755 3445 c-32 -41 -30 -70 5 -70 29 0 65 54 55 85 -9 30 -31 25
-60 -15z"/>
<path d="M404 3218 c-5 -7 -7 -50 -6 -95 1 -46 0 -83 -3 -83 -3 0 -19 7 -35
15 -37 19 -53 0 -21 -24 12 -9 28 -28 34 -40 16 -32 45 -50 55 -34 4 7 4 52 0
100 -5 48 -10 99 -11 113 -2 20 3 25 27 30 16 3 31 11 34 18 5 16 -64 16 -74
0z"/>
<path d="M4101 3169 c-19 -7 -22 -12 -13 -21 7 -7 12 -20 12 -30 0 -15 9 -18
50 -18 43 0 54 -4 77 -30 28 -32 53 -39 53 -15 0 19 13 19 50 0 18 -9 27 -21
24 -29 -3 -8 -1 -24 6 -35 13 -26 67 -28 111 -6 16 9 33 13 38 11 14 -9 44 32
37 49 -8 22 -65 11 -86 -16 -12 -15 -23 -17 -52 -13 -21 4 -38 10 -38 14 0 5
20 20 45 34 25 15 45 29 45 32 0 3 -17 4 -37 2 -29 -2 -38 0 -36 12 1 8 3 24
5 35 3 17 -2 19 -27 17 -38 -4 -79 -29 -91 -54 -9 -20 -29 -27 -29 -10 -1 19
-28 52 -43 52 -9 0 -26 7 -36 15 -23 17 -31 18 -65 4z"/>
<path d="M294 3155 c-16 -13 -17 -16 -4 -25 22 -15 47 -12 54 6 13 34 -16 45
-50 19z"/>
<path d="M650 3151 c-5 -11 -10 -38 -10 -60 0 -23 -4 -41 -10 -41 -5 0 -10 5
-10 10 0 6 -8 10 -19 10 -11 0 -21 9 -24 21 -5 17 -11 20 -30 15 -14 -3 -32 0
-43 9 -10 8 -27 15 -36 15 -30 0 -29 -19 1 -35 22 -11 28 -20 24 -32 -5 -14
-1 -15 25 -10 34 7 50 -6 32 -28 -7 -8 -7 -15 -1 -19 5 -4 12 -2 16 4 14 23
34 7 48 -37 28 -90 28 -93 -1 -93 -26 0 -26 -1 11 -27 41 -29 49 -48 15 -39
-13 3 -30 6 -38 6 -9 0 -50 20 -92 44 -77 43 -124 60 -133 46 -4 -7 67 -60 81
-60 4 0 15 -7 25 -16 20 -18 96 -39 177 -49 47 -5 61 -3 71 9 11 13 11 16 -3
16 -9 0 -24 8 -35 19 -25 25 -39 154 -20 177 10 12 10 17 0 23 -7 5 -11 23 -9
46 2 31 9 42 32 55 44 24 44 40 2 40 -25 0 -38 -6 -46 -19z"/>
<path d="M716 3077 c-15 -11 -16 -18 -8 -32 7 -13 7 -26 -1 -42 -12 -28 -3
-41 18 -23 10 8 19 9 28 3 22 -19 83 -25 95 -10 9 10 5 23 -15 54 -37 58 -81
76 -117 50z"/>
<path d="M4171 2996 c-9 -11 -10 -20 -1 -36 14 -26 5 -40 -25 -40 -15 0 -31
10 -41 25 -9 14 -20 25 -24 25 -15 0 -22 -41 -10 -55 21 -25 1 -38 -51 -32
-53 6 -54 6 -39 -23 9 -17 21 -19 105 -18 89 2 95 3 95 22 0 12 13 30 30 41
36 24 36 28 9 71 -23 38 -31 41 -48 20z"/>
<path d="M4330 2964 c5 -19 17 -42 27 -49 26 -20 29 2 4 29 -12 12 -21 27 -21
34 0 6 -4 13 -9 16 -5 4 -5 -9 -1 -30z"/>
<path d="M743 2935 c-35 -25 -28 -35 26 -35 36 0 51 4 55 16 8 21 6 22 -30 29
-18 4 -37 0 -51 -10z"/>
<path d="M4310 2879 c0 -18 62 -70 79 -67 10 2 16 13 16 28 0 20 -6 26 -30 28
-16 2 -34 8 -39 13 -13 12 -26 11 -26 -2z"/>
<path d="M410 2282 c-33 -15 -17 -105 21 -117 33 -11 54 4 77 50 15 31 28 45
42 45 27 0 27 -37 0 -65 l-20 -22 28 5 c28 4 28 5 22 48 -8 55 -19 67 -56 62
-23 -2 -34 -13 -53 -50 -24 -49 -53 -63 -65 -32 -10 26 -7 34 20 59 26 24 18
32 -16 17z"/>
<path d="M4206 2216 c-4 -15 -5 -31 -1 -34 3 -3 5 0 5 6 0 19 16 14 47 -12
l28 -24 -35 -15 c-21 -9 -39 -11 -46 -5 -8 6 -13 -3 -15 -30 l-4 -38 39 19
c59 28 116 34 131 13 11 -14 13 -10 19 25 4 23 4 44 1 47 -3 3 -5 0 -5 -6 0
-7 -13 -12 -29 -12 -28 0 -115 58 -123 82 -3 7 -8 0 -12 -16z"/>
<path d="M578 2120 c-2 -7 -37 -19 -77 -27 -62 -12 -75 -13 -83 -1 -7 9 -8 2
-4 -21 3 -18 6 -41 6 -49 0 -14 1 -14 13 1 6 9 25 17 41 19 24 3 30 -1 37 -25
6 -23 4 -28 -17 -33 -13 -4 -34 -4 -45 -1 -19 5 -21 3 -15 -25 3 -17 6 -35 6
-40 0 -5 6 -3 14 4 7 8 44 20 81 27 56 10 70 10 77 -1 7 -9 8 -5 4 12 -3 14
-6 33 -6 42 0 15 -3 15 -27 2 -47 -24 -63 -14 -63 38 0 17 5 20 39 16 l39 -3
-5 35 c-7 40 -9 46 -15 30z"/>
<path d="M4177 2013 c-4 -3 -7 -13 -7 -21 0 -13 2 -13 18 0 9 9 24 18 32 21 9
3 4 6 -11 6 -14 1 -29 -2 -32 -6z"/>
<path d="M4152 1922 c-5 -26 -10 -48 -9 -48 1 -1 13 -5 27 -9 24 -7 24 -7 8
12 -36 40 -18 52 52 34 19 -5 47 -12 63 -15 16 -4 27 -13 27 -23 0 -26 7 -12
14 30 4 22 3 37 -2 33 -4 -3 -33 1 -63 8 -115 29 -104 31 -117 -22z"/>
<path d="M621 1909 c-1 -21 -140 -72 -157 -58 -8 7 28 -117 41 -138 0 -1 14 1
31 6 l29 8 -28 7 c-30 7 -57 50 -41 66 5 5 21 12 37 15 23 6 27 4 27 -14 0
-12 -5 -21 -12 -21 -6 0 -9 -3 -5 -6 3 -3 22 0 42 7 33 12 35 14 14 19 -34 8
-34 26 2 40 26 11 32 11 40 -1 12 -20 11 -53 -3 -67 -14 -14 0 -16 21 -3 11 7
9 22 -12 82 -14 41 -26 67 -26 58z"/>
<path d="M4116 1807 c-3 -14 -9 -33 -12 -44 -5 -14 -4 -15 4 -4 9 12 20 11 74
-9 34 -13 70 -29 79 -36 13 -12 16 -8 26 27 7 25 7 37 1 31 -11 -11 -147 31
-159 49 -3 6 -9 0 -13 -14z"/>
<path d="M677 1716 c-9 -23 -129 -76 -144 -63 -17 13 -16 -2 2 -33 11 -19 14
-21 15 -8 0 18 100 77 100 59 0 -4 -16 -43 -35 -85 -19 -42 -33 -76 -31 -76 2
0 38 16 80 35 42 20 81 33 86 30 6 -4 5 6 -2 21 -10 21 -14 24 -16 11 -3 -15
-82 -66 -82 -53 0 2 13 33 29 68 24 55 27 68 16 87 -10 19 -13 21 -18 7z"/>
<path d="M4068 1674 c-22 -43 -22 -58 -2 -78 23 -23 52 -20 92 11 27 20 39 24
51 16 32 -21 -3 -79 -41 -69 -10 2 -18 1 -18 -4 0 -4 10 -10 22 -13 36 -10 75
54 58 97 -15 40 -46 42 -96 7 -57 -40 -90 -30 -64 20 7 11 21 19 38 19 26 1
26 1 8 15 -27 20 -29 20 -48 -21z"/>
<path d="M746 1479 c-29 -58 -70 -90 -96 -74 -7 4 -1 -11 11 -33 20 -34 25
-38 31 -23 9 26 60 43 117 39 56 -3 58 -1 36 28 -11 13 -14 14 -13 4 2 -11 -8
-16 -41 -18 l-44 -3 21 33 c12 18 29 32 37 32 12 -2 11 5 -7 35 -12 20 -22 36
-22 37 -1 1 -14 -25 -30 -57z"/>
<path d="M3993 1508 c-32 -37 -64 -98 -48 -91 18 6 145 -64 145 -80 0 -7 9 3
20 21 22 36 25 46 11 37 -11 -6 -61 15 -61 26 0 4 21 9 46 11 34 2 50 9 61 24
14 21 13 22 -34 20 -26 0 -48 1 -49 4 -4 24 -29 50 -48 50 -12 0 -32 -10 -43
-22z m45 -24 c24 -17 26 -22 13 -42 -7 -12 -14 -11 -40 2 -34 18 -37 26 -19
44 15 15 19 15 46 -4z"/>
<path d="M3886 1342 c-11 -15 -31 -43 -45 -61 -14 -19 -20 -32 -13 -27 8 5 37
-10 77 -38 48 -35 63 -51 58 -64 -3 -9 15 11 40 46 26 34 47 66 47 70 0 5 -10
17 -21 28 -22 19 -22 19 -10 -4 10 -19 10 -30 1 -53 -14 -34 -29 -36 -60 -11
-27 22 -18 46 14 38 16 -4 12 2 -14 24 -36 29 -53 32 -30 5 22 -26 -3 -40 -34
-20 -32 21 -32 26 -3 54 16 14 30 19 43 15 18 -6 18 -6 -1 9 -26 21 -27 21
-49 -11z"/>
<path d="M895 1288 c-16 -5 -60 -17 -98 -27 l-67 -18 22 -19 c12 -10 18 -14
14 -7 -4 7 2 16 12 22 15 8 24 5 42 -14 19 -21 21 -27 10 -40 -7 -9 -19 -14
-27 -11 -7 3 -1 -10 14 -29 l28 -35 10 28 c6 15 25 56 43 91 18 34 32 64 30
66 -2 1 -16 -2 -33 -7z m-25 -26 c0 -5 -7 -17 -15 -28 -13 -16 -16 -17 -25 -4
-14 21 -12 28 8 33 28 8 32 7 32 -1z"/>
<path d="M3774 1199 c-15 -17 -15 -19 -2 -14 12 5 24 -6 43 -40 15 -25 25 -48
23 -51 -11 -10 -103 33 -100 47 2 8 -10 1 -27 -15 -29 -28 -43 -54 -21 -41 6
3 49 -6 96 -20 47 -15 87 -26 88 -24 2 2 -16 43 -39 91 -42 85 -43 87 -61 67z"/>
<path d="M1000 1173 c0 -26 -96 -117 -113 -107 -6 4 -3 -2 7 -14 20 -23 32
-29 20 -11 -6 11 63 89 79 89 5 0 7 -19 4 -42 -4 -24 -9 -65 -13 -93 l-6 -50
65 64 c44 43 69 61 78 55 8 -4 5 2 -5 14 -20 23 -32 29 -20 11 6 -11 -42 -69
-58 -69 -5 0 -6 30 -3 68 6 60 5 69 -14 86 -21 19 -21 19 -21 -1z"/>
<path d="M3622 1040 c-18 -17 -26 -30 -19 -30 22 0 120 -106 112 -122 -5 -7 7
1 26 17 19 17 36 32 39 34 3 2 -2 2 -11 -2 -22 -8 -124 95 -116 117 8 21 8 21
-31 -14z"/>
<path d="M1113 982 c-56 -44 -46 -120 21 -162 l37 -22 23 21 c12 12 27 18 32
14 5 -5 -4 7 -20 25 -28 30 -61 47 -37 19 8 -11 6 -18 -8 -31 -21 -19 -48 -12
-56 14 -12 39 53 120 96 120 26 0 52 -43 44 -72 l-7 -23 22 22 23 21 -36 36
c-29 29 -44 36 -74 36 -21 0 -48 -8 -60 -18z"/>
<path d="M3536 964 c-20 -14 -20 -14 0 -15 19 0 71 -55 61 -65 -3 -3 -32 2
-66 11 -57 14 -63 14 -88 -2 -25 -17 -25 -18 -6 -23 25 -6 106 -106 98 -120
-10 -16 11 -11 25 5 10 12 10 15 -1 15 -14 1 -81 81 -74 88 2 2 35 -3 74 -12
108 -25 109 -24 53 47 -27 34 -51 67 -53 74 -3 8 -9 8 -23 -3z"/>
<path d="M3374 845 c-14 -11 -15 -14 -4 -15 18 0 73 -102 68 -126 -5 -26 -34
-41 -55 -28 -23 14 -74 105 -68 122 6 16 1 15 -37 -8 -18 -11 -28 -20 -21 -20
6 0 26 -25 43 -55 41 -72 60 -82 108 -58 49 24 53 57 14 126 -16 29 -27 58
-25 65 6 16 1 15 -23 -3z"/>
<path d="M1419 747 c-36 -30 -71 -56 -79 -59 -11 -3 -10 -8 7 -17 19 -10 22
-9 17 4 -8 21 22 30 52 17 27 -13 33 -49 8 -54 -11 -2 -5 -9 20 -20 l36 -18 1
48 c0 26 4 71 8 100 4 28 5 52 1 52 -3 0 -35 -24 -71 -53z m31 -20 c0 -32 -8
-38 -31 -24 -17 10 -17 13 -2 29 22 24 33 23 33 -5z"/>
<path d="M1609 727 c16 -20 -42 -147 -67 -147 -10 -1 -4 -8 18 -20 40 -22 54
-25 45 -9 -9 14 15 71 29 66 6 -2 13 -14 16 -26 5 -22 7 -20 23 13 20 43 22
55 5 38 -12 -12 -48 -17 -48 -7 0 12 31 65 38 65 19 0 52 -33 53 -53 0 -21 1
-21 10 2 5 13 8 25 6 27 -11 12 -137 61 -128 51z"/>
<path d="M3035 678 c-60 -23 -61 -24 -48 -40 5 -7 20 -42 33 -76 20 -54 21
-65 9 -74 -16 -11 -14 -10 74 21 67 25 78 38 57 71 -8 12 -10 11 -10 -6 0 -24
-29 -54 -52 -54 -14 0 -38 38 -38 60 0 15 38 12 43 -2 4 -8 6 -9 6 -2 1 7 -6
27 -14 45 -11 27 -14 30 -15 12 0 -25 -17 -40 -30 -27 -5 5 -12 21 -15 36 -6
23 -3 27 25 33 20 4 37 2 47 -7 15 -11 16 -11 10 5 -4 10 -7 21 -7 23 0 8 -25
2 -75 -18z"/>
<path d="M1786 646 c6 -16 -23 -136 -38 -153 -8 -9 -7 -13 3 -13 8 0 25 -3 38
-7 16 -4 22 -2 18 4 -9 14 4 77 13 66 4 -4 13 -25 20 -46 8 -25 21 -41 37 -48
34 -13 35 -12 20 19 -29 55 -29 68 -2 80 17 8 25 20 25 37 0 21 -8 30 -42 44
-65 28 -99 34 -92 17z m89 -27 c11 -16 -3 -56 -22 -63 -24 -10 -34 6 -27 42 7
32 35 45 49 21z"/>
<path d="M2915 630 c-4 -6 -15 -8 -25 -5 -24 7 -76 -19 -90 -44 -33 -62 9
-141 75 -141 38 0 80 22 89 47 4 9 -6 4 -25 -11 -17 -14 -35 -26 -40 -26 -39
0 -69 52 -69 116 0 54 46 66 93 25 17 -15 18 -14 11 14 -8 37 -10 39 -19 25z"/>
<path d="M2012 583 c-19 -7 -42 -58 -42 -93 0 -19 9 -40 25 -55 29 -30 56 -34
30 -5 -13 15 -16 30 -12 60 10 75 55 114 87 75 18 -21 8 -110 -15 -135 -17
-19 -17 -20 2 -20 62 0 90 113 39 157 -26 22 -80 30 -114 16z"/>
<path d="M2636 570 c-3 -8 -14 -48 -25 -87 -11 -40 -22 -77 -26 -83 -4 -6 5
-10 22 -10 24 1 25 2 10 11 -26 15 -4 49 32 49 32 0 50 -27 29 -43 -8 -5 -1
-7 21 -3 18 3 37 6 42 6 4 0 -7 22 -24 49 -18 28 -42 67 -54 88 -15 27 -23 34
-27 23z m24 -102 c0 -4 -9 -8 -20 -8 -20 0 -28 29 -13 44 7 7 33 -21 33 -36z"/>
<path d="M2226 557 c-30 -22 -17 -68 27 -96 39 -26 49 -57 21 -68 -21 -8 -46
7 -61 38 -13 24 -13 24 -13 -7 0 -28 4 -32 35 -38 45 -9 72 0 86 25 15 30 2
57 -42 85 -26 16 -39 31 -37 42 6 29 40 27 65 -4 l23 -29 0 26 c0 22 -6 28
-31 33 -44 9 -53 8 -73 -7z"/>
<path d="M1685 550 c-3 -5 -21 -10 -38 -10 l-32 -1 28 -15 c26 -14 30 -14 43
3 13 18 18 33 10 33 -3 0 -8 -4 -11 -10z"/>
<path d="M2383 549 c14 -8 17 -24 17 -84 0 -49 -4 -75 -12 -78 -7 -3 10 -6 37
-6 39 0 46 2 33 10 -11 6 -18 22 -18 39 0 25 4 30 23 30 55 0 91 66 48 90 -27
14 -153 13 -128 -1z m97 -19 c13 -24 -3 -60 -25 -60 -11 0 -15 12 -15 40 0 44
21 55 40 20z"/>
</g>
</svg>
